# xmcd
#
# Track frame offsets: 
#        150
#        23100
#        43200
#        64838
#        104775
#        165863
#        186263
#        226725
#
# Disc length: 3811 seconds
#
# Revision: 0
# Processed by: cddbd v1.5.2PL0 Copyright (c) Steve Scherf et al.
# Submitted via: ExactAudioCopyFreeDBPlugin 1.0
#
DISCID=640ee108
DTITLE=Elias Zaikos - Jimi Jam (Hendrix Tribute Concert)
DYEAR=2003
DGENRE=Blues
TTITLE0=Going Down
TTITLE1=Rock me Baby
TTITLE2=What have I done wrong
TTITLE3=Bleeding Heart
TTITLE4=Shooting Sown - Jimi Jam
TTITLE5=Cork Boogie
TTITLE6=Hey Joe
TTITLE7=Whishbone
EXTD=
EXTT0=
EXTT1=
EXTT2=
EXTT3=
EXTT4=
EXTT5=
EXTT6=
EXTT7=
PLAYORDER=
